<?xml version="1.0" encoding="utf-8"?>
<!-- Generator: Adobe Illustrator 26.0.1, SVG Export Plug-In . SVG Version: 6.00 Build 0)  -->
<svg version="1.1" id="Layer_1" xmlns="http://www.w3.org/2000/svg" xmlns:xlink="http://www.w3.org/1999/xlink" x="0px" y="0px"
	 viewBox="0 0 512 512" style="enable-background:new 0 0 512 512;" xml:space="preserve">
<style type="text/css">
	.st0{clip-path:url(#SVGID_00000093883306691869497170000010987821358312666036_);}
	.st1{fill:#966494;}
	
		.st2{clip-path:url(#SVGID_00000093883306691869497170000010987821358312666036_);fill:url(#SVGID_00000131366475684274793060000014987290214716474039_);}
	.st3{fill:#4285F4;}
	
		.st4{clip-path:url(#SVGID_00000093883306691869497170000010987821358312666036_);fill:url(#SVGID_00000031906190931371672420000013122142388880363417_);}
	.st5{fill:#3B96A3;}
	
		.st6{clip-path:url(#SVGID_00000093883306691869497170000010987821358312666036_);fill:url(#SVGID_00000152222920100328055200000017865283821067913862_);}
	.st7{fill:#34A853;}
	
		.st8{clip-path:url(#SVGID_00000093883306691869497170000010987821358312666036_);fill:url(#SVGID_00000070097820119541788530000010951211727359714436_);}
	.st9{fill:#EA8600;}
	
		.st10{clip-path:url(#SVGID_00000093883306691869497170000010987821358312666036_);fill:url(#SVGID_00000137831503438094699210000009592801284559027897_);}
	.st11{fill:#EA4335;}
	
		.st12{clip-path:url(#SVGID_00000093883306691869497170000010987821358312666036_);fill:url(#SVGID_00000163055104929203829220000010462601014234510218_);}
	.st13{fill:#FFFFFF;}
</style>
<g>
	<defs>
		<circle id="SVGID_1_" cx="256" cy="256" r="256"/>
	</defs>
	<clipPath id="SVGID_00000163781003592683851310000009048150198615487139_">
		<use xlink:href="#SVGID_1_"  style="overflow:visible;"/>
	</clipPath>
	<g style="clip-path:url(#SVGID_00000163781003592683851310000009048150198615487139_);">
		<rect x="256" y="85.33" class="st1" width="170.67" height="85.33"/>
	</g>
	<g style="clip-path:url(#SVGID_00000163781003592683851310000009048150198615487139_);">
		
			<rect x="376.75" y="69.72" transform="matrix(0.5 0.866 -0.866 0.5 307.0361 -307.0359)" class="st1" width="85.33" height="85.33"/>
	</g>
	
		<radialGradient id="SVGID_00000121258829852976749010000014716813073394202527_" cx="366.9527" cy="69.191" r="308.858" gradientTransform="matrix(0.6667 0 0 -0.6667 2 131.3333)" gradientUnits="userSpaceOnUse">
		<stop  offset="0" style="stop-color:#3E2723;stop-opacity:0.2"/>
		<stop  offset="1" style="stop-color:#3E2723;stop-opacity:0"/>
	</radialGradient>
	
		<path style="clip-path:url(#SVGID_00000163781003592683851310000009048150198615487139_);fill:url(#SVGID_00000121258829852976749010000014716813073394202527_);" d="
		M256,85.33v51.31l192-51.31H256z"/>
	<g style="clip-path:url(#SVGID_00000163781003592683851310000009048150198615487139_);">
		<rect x="170.67" y="0" class="st3" width="341.33" height="85.33"/>
	</g>
	<g style="clip-path:url(#SVGID_00000163781003592683851310000009048150198615487139_);">
		
			<rect x="102.48" y="75.43" transform="matrix(0.5 -0.866 0.866 0.5 -8.3694 221.702)" class="st3" width="170.67" height="85.33"/>
	</g>
	
		<radialGradient id="SVGID_00000056389685816018845550000018435892828138371751_" cx="366.9527" cy="69.191" r="308.858" gradientTransform="matrix(0.3333 -0.5774 -0.5774 -0.3333 21.0355 413.6371)" gradientUnits="userSpaceOnUse">
		<stop  offset="0" style="stop-color:#3E2723;stop-opacity:0.2"/>
		<stop  offset="1" style="stop-color:#3E2723;stop-opacity:0"/>
	</radialGradient>
	
		<path style="clip-path:url(#SVGID_00000163781003592683851310000009048150198615487139_);fill:url(#SVGID_00000056389685816018845550000018435892828138371751_);" d="
		M108.2,170.67l44.43,25.65L204.2,4.39L108.2,170.67z"/>
	<g style="clip-path:url(#SVGID_00000163781003592683851310000009048150198615487139_);">
		
			<rect x="-56.75" y="32.77" transform="matrix(0.5 -0.866 0.866 0.5 -8.3696 136.3694)" class="st5" width="341.33" height="85.33"/>
	</g>
	<g style="clip-path:url(#SVGID_00000163781003592683851310000009048150198615487139_);">
		
			<rect x="17.15" y="203.43" transform="matrix(-0.5 -0.866 0.866 -0.5 -59.4052 457.9007)" class="st5" width="170.67" height="85.33"/>
	</g>
	
		<radialGradient id="SVGID_00000042003753568293226540000004899893903524551298_" cx="366.9527" cy="69.191" r="308.858" gradientTransform="matrix(-0.3333 -0.5774 -0.5774 0.3333 275.0355 538.3038)" gradientUnits="userSpaceOnUse">
		<stop  offset="0" style="stop-color:#3E2723;stop-opacity:0.2"/>
		<stop  offset="1" style="stop-color:#3E2723;stop-opacity:0"/>
	</radialGradient>
	
		<path style="clip-path:url(#SVGID_00000163781003592683851310000009048150198615487139_);fill:url(#SVGID_00000042003753568293226540000004899893903524551298_);" d="
		M108.2,341.33l44.43-25.65L12.2,175.06L108.2,341.33z"/>
	<g style="clip-path:url(#SVGID_00000163781003592683851310000009048150198615487139_);">
		
			<rect x="-142.09" y="246.1" transform="matrix(-0.5 -0.866 0.866 -0.5 -207.207 457.9002)" class="st7" width="341.33" height="85.33"/>
	</g>
	<g style="clip-path:url(#SVGID_00000163781003592683851310000009048150198615487139_);">
		
			<rect x="85.33" y="341.33" transform="matrix(-1 -9.282042e-07 9.282042e-07 -1 351.9995 768.0001)" class="st7" width="181.33" height="85.33"/>
	</g>
	
		<radialGradient id="SVGID_00000056427575780911235060000017427229500360913545_" cx="366.9558" cy="69.1877" r="308.858" gradientTransform="matrix(-0.6667 0 0 0.6667 510.002 380.6689)" gradientUnits="userSpaceOnUse">
		<stop  offset="0" style="stop-color:#3E2723;stop-opacity:0.2"/>
		<stop  offset="1" style="stop-color:#3E2723;stop-opacity:0"/>
	</radialGradient>
	
		<path style="clip-path:url(#SVGID_00000163781003592683851310000009048150198615487139_);fill:url(#SVGID_00000056427575780911235060000017427229500360913545_);" d="
		M256,426.67l0-51.31L64,426.67L256,426.67z"/>
	<g style="clip-path:url(#SVGID_00000163781003592683851310000009048150198615487139_);">
		
			<rect x="0" y="426.67" transform="matrix(-1 -2.238717e-06 2.238717e-06 -1 341.332 938.6671)" class="st9" width="341.33" height="85.33"/>
	</g>
	<g style="clip-path:url(#SVGID_00000163781003592683851310000009048150198615487139_);">
		
			<rect x="238.85" y="351.23" transform="matrix(-0.5 0.866 -0.866 -0.5 827.4051 310.0996)" class="st9" width="170.67" height="85.33"/>
	</g>
	
		<radialGradient id="SVGID_00000041286336662453897130000016937330372938716327_" cx="366.953" cy="69.1907" r="308.858" gradientTransform="matrix(-0.3333 0.5774 0.5774 0.3333 490.9648 98.3629)" gradientUnits="userSpaceOnUse">
		<stop  offset="0" style="stop-color:#3E2723;stop-opacity:0.2"/>
		<stop  offset="1" style="stop-color:#3E2723;stop-opacity:0"/>
	</radialGradient>
	
		<path style="clip-path:url(#SVGID_00000163781003592683851310000009048150198615487139_);fill:url(#SVGID_00000041286336662453897130000016937330372938716327_);" d="
		M403.8,341.33l-44.43-25.65L307.8,507.61L403.8,341.33z"/>
	<g style="clip-path:url(#SVGID_00000163781003592683851310000009048150198615487139_);">
		
			<rect x="227.42" y="393.9" transform="matrix(-0.5 0.866 -0.866 -0.5 975.207 310.1006)" class="st11" width="341.33" height="85.33"/>
	</g>
	<g style="clip-path:url(#SVGID_00000163781003592683851310000009048150198615487139_);">
		
			<rect x="324.18" y="223.23" transform="matrix(0.5 0.866 -0.866 0.5 435.0367 -221.7025)" class="st11" width="170.67" height="85.33"/>
	</g>
	
		<radialGradient id="SVGID_00000062182789189381358550000001774662096228116906_" cx="366.9583" cy="69.1851" r="308.8581" gradientTransform="matrix(0.3333 0.5774 0.5774 -0.3333 236.9661 -26.3089)" gradientUnits="userSpaceOnUse">
		<stop  offset="0" style="stop-color:#3E2723;stop-opacity:0.2"/>
		<stop  offset="1" style="stop-color:#3E2723;stop-opacity:0"/>
	</radialGradient>
	
		<path style="clip-path:url(#SVGID_00000163781003592683851310000009048150198615487139_);fill:url(#SVGID_00000062182789189381358550000001774662096228116906_);" d="
		M403.8,170.67l-44.43,25.65L499.8,336.94L403.8,170.67z"/>
	<g style="clip-path:url(#SVGID_00000163781003592683851310000009048150198615487139_);">
		
			<rect x="376.75" y="217.52" transform="matrix(0.5 0.866 -0.866 0.5 477.7044 -307.0356)" class="st1" width="256" height="85.33"/>
	</g>
</g>
<g>
	<circle class="st13" cx="256" cy="256" r="170.67"/>
</g>
<g>
	<g>
		<path class="st3" d="M146.66,232.63l92.77,50.62c6.6,3.63,14.53,3.63,21.13,0l88.48-48.31v65.04c0,6.05,4.95,11,11,11
			c6.05,0,11-4.95,11-11v-70.54c0-4.07-2.2-7.7-5.72-9.68l-104.76-57.11c-6.6-3.52-14.53-3.52-21.13,0l-92.77,50.62
			C139.06,217.44,139.06,228.45,146.66,232.63z"/>
	</g>
	<g>
		<path class="st3" d="M239.42,305.26l-66.47-36.31v30.92c0,8.03,4.4,15.52,11.45,19.37l55.02,30.04c6.6,3.63,14.53,3.63,21.13,0
			l55.02-30.04c7.04-3.85,11.45-11.33,11.45-19.37v-30.92l-66.47,36.31C253.95,308.89,246.03,308.89,239.42,305.26z"/>
	</g>
</g>
</svg>
