<?xml version="1.0" encoding="utf-8"?>
<!-- Generator: Adobe Illustrator 26.3.1, SVG Export Plug-In . SVG Version: 6.00 Build 0)  -->
<svg version="1.1" xmlns="http://www.w3.org/2000/svg" xmlns:xlink="http://www.w3.org/1999/xlink" x="0px" y="0px"
	 viewBox="0 0 192 192" style="enable-background:new 0 0 192 192;" xml:space="preserve">
<style type="text/css">
	.blue{fill:#acc7ff;}
	.purple{fill:#fbacf8;}
	.red{fill:#ffb4a8;}
	.yellow{fill:#ffb772;}
	.green{fill:#6cdd81;}
	.teal{fill:#4fd8eb;}

	#portal {
		transform-origin: center;
		animation: rotate 1s linear infinite reverse;
	}

	@keyframes rotate {
		100% {
			transform: rotate(360deg);
		}
	}
</style>
<g>
	<path class="blue" d="M55,87.5l34.79,18.98c2.48,1.36,5.45,1.36,7.92,0l33.18-18.12v24.39c0,2.27,1.86,4.13,4.13,4.13
		c2.27,0,4.13-1.86,4.13-4.13V86.31c0-1.53-0.83-2.89-2.15-3.63L97.71,61.26c-2.48-1.32-5.45-1.32-7.92,0L55,80.24
		C52.15,81.81,52.15,85.93,55,87.5z"/>
	<path class="blue" d="M89.78,114.74l-24.92-13.62v11.6c0,3.01,1.65,5.82,4.29,7.26l20.63,11.27c2.48,1.36,5.45,1.36,7.92,0
		l20.63-11.27c2.64-1.44,4.29-4.25,4.29-7.26v-11.6l-24.93,13.62C95.23,116.1,92.26,116.1,89.78,114.74z"/>
</g>
<g id="portal">
	<path class="blue" d="M40.57,64L40.57,64C51.65,44.88,72.32,32,96,32h71.55C149.97,12.36,124.43,0,96,0c-6.73,0-13.3,0.7-19.64,2.01
		L40.57,64z"/>
	<path class="purple" d="M167.55,32H96c23.69,0,44.35,12.88,55.42,32l0.01,0l35.79,61.99c3.1-9.44,4.78-19.52,4.78-29.99
		c0-16.99-4.42-32.94-12.16-46.78l-1.34-2.33C175.33,41.57,171.65,36.59,167.55,32z"/>
	<path class="red" d="M151.43,64L151.43,64c5.44,9.42,8.57,20.34,8.57,32c0,11.66-3.13,22.58-8.58,32l0.01,0l-35.79,61.99
		c26.7-5.55,49.32-22.19,62.86-44.88l1.34-2.32c2.97-5.31,5.45-10.93,7.37-16.79L151.43,64z"/>
	<path class="yellow" d="M151.43,128L151.43,128c-11.08,19.12-31.74,32-55.43,32H24.45c17.58,19.64,43.12,32,71.55,32
		c6.73,0,13.3-0.7,19.64-2.01L151.43,128z"/>
	<path class="green" d="M96,160c-23.69,0-44.35-12.88-55.42-32l-0.01,0L4.78,66.01C1.68,75.45,0,85.53,0,96
		c0,16.99,4.42,32.94,12.16,46.78l1.34,2.33c3.17,5.32,6.84,10.3,10.95,14.89H96z"/>
	<path class="teal" d="M13.5,46.89l-1.34,2.32c-2.97,5.31-5.45,10.93-7.37,16.79L40.57,128l0-0.01C35.13,118.58,32,107.66,32,96
		c0-11.66,3.13-22.58,8.58-32l-0.01,0L76.36,2.01C49.67,7.56,27.04,24.2,13.5,46.89z"/>
</g>
</svg>
