<?xml version="1.0" encoding="utf-8"?>
<!-- Generator: Adobe Illustrator 26.3.1, SVG Export Plug-In . SVG Version: 6.00 Build 0)  -->
<svg version="1.1" id="Layer_1" xmlns="http://www.w3.org/2000/svg" xmlns:xlink="http://www.w3.org/1999/xlink" x="0px" y="0px"
	 viewBox="0 0 192 192" style="enable-background:new 0 0 192 192;" xml:space="preserve">
<style type="text/css">
	path{fill:#888;}

	#text {
		transform-origin: center;
		animation: rotate 15s linear infinite reverse;
	}

	@keyframes rotate {
		100% {
			transform: rotate(360deg);
		}
	}
</style>
<path d="M96,0C43,0,0,43,0,96s43,96,96,96s96-43,96-96S149,0,96,0z M96,183c-48,0-87-39-87-87S48,9,96,9s87,39,87,87
	S144,183,96,183z"/>
<g id="text">
	<path d="M27.5,63.5c0.4-0.2,0.9-0.2,1.3,0c0.4,0.2,0.7,0.5,0.9,1s0.1,0.9,0,1.3c-0.2,0.4-0.5,0.7-0.9,0.9s-0.9,0.1-1.3,0
		s-0.7-0.5-0.9-0.9c-0.2-0.4-0.2-0.9,0-1.3C26.7,64,27.1,63.7,27.5,63.5z"/>
	<path d="M29,76.8l-0.8,3.5c-0.1,0.6-0.4,1.1-0.8,1.5c-0.4,0.4-0.8,0.7-1.4,0.9c-0.5,0.2-1.1,0.2-1.7,0.1c-0.6-0.1-1.1-0.4-1.5-0.8
		c-0.4-0.4-0.7-0.9-0.8-1.5c-0.1-0.6-0.1-1.1,0-1.7l0.5-2.3l-4.3-1l0.3-1.2L29,76.8z M23.1,79.2c-0.1,0.4-0.1,0.8,0,1.1
		c0.1,0.3,0.3,0.6,0.6,0.9c0.3,0.2,0.5,0.4,0.9,0.5c0.3,0.1,0.6,0.1,1,0c0.3-0.1,0.6-0.3,0.9-0.5c0.3-0.3,0.4-0.6,0.5-1l0.6-2.3
		l-3.8-0.9L23.1,79.2z"/>
	<path d="M27.2,84.9L26.5,91l-1.2-0.1l0.6-4.9l-3.5-0.4L21.8,90l-1.2-0.1l0.5-4.4L17.6,85L17,89.9l-1.2-0.1l0.7-6.2L27.2,84.9z"/>
	<path d="M26.3,92.3l0,1.8l-8.7,3.6l0,0.1l8.9,3.2l0,1.8l-10.7,0.2l0-1.3l6.8-0.2l2,0v-0.1l-8.9-3.3l0-1.1l8.8-3.7l0-0.1l-2,0.1
		l-6.8,0.1l0-1.3L26.3,92.3z"/>
	<path d="M26.8,104.6l0.7,3.8c0.1,0.5,0.1,1.1-0.1,1.6c-0.2,0.5-0.4,0.9-0.8,1.3s-0.8,0.6-1.4,0.7c-0.5,0.1-1,0-1.4-0.2
		c-0.4-0.2-0.8-0.5-1.1-0.9l-0.1,0c-0.1,0.6-0.3,1-0.7,1.5s-0.9,0.7-1.4,0.8c-0.6,0.1-1.1,0-1.6-0.2c-0.5-0.2-0.9-0.5-1.3-1
		c-0.3-0.4-0.6-0.9-0.7-1.5l-0.7-4L26.8,104.6z M18.1,110.3c0.1,0.4,0.2,0.7,0.4,0.9s0.5,0.4,0.8,0.5c0.3,0.1,0.6,0.1,0.9,0.1
		c0.3,0,0.6-0.2,0.8-0.4c0.3-0.2,0.4-0.5,0.6-0.8s0.2-0.7,0.1-1l-0.5-2.8l-3.6,0.6L18.1,110.3z M22.9,109.2c0.1,0.4,0.2,0.7,0.4,0.9
		c0.2,0.2,0.5,0.4,0.8,0.5c0.3,0.1,0.6,0.1,0.8,0.1c0.3,0,0.5-0.2,0.8-0.4c0.2-0.2,0.4-0.4,0.5-0.7c0.1-0.3,0.2-0.6,0.1-0.9
		l-0.4-2.6l-3.4,0.6L22.9,109.2z"/>
	<path d="M28.4,113.1l1.8,6l-1.2,0.3l-1.4-4.7l-3.4,1l1.3,4.3l-1.2,0.3l-1.3-4.3l-3.4,1l1.4,4.7l-1.2,0.3l-1.8-6L28.4,113.1z"/>
	<path d="M30.7,120.6l1.4,3.3c0.2,0.5,0.3,1.1,0.3,1.7c0,0.6-0.2,1.1-0.6,1.6s-0.8,0.8-1.3,1.1c-0.5,0.2-0.9,0.3-1.4,0.2
		c-0.5,0-0.9-0.2-1.4-0.4c-0.4-0.3-0.8-0.6-1.1-1l-0.1,0l-2.8,4.5l-0.1,0l-0.6-1.4l2.9-4.4l-0.7-1.6l-4,1.7l-0.5-1.2L30.7,120.6z
		 M27.4,125.9c0.1,0.3,0.4,0.6,0.6,0.9c0.3,0.2,0.6,0.4,1,0.4s0.7,0,1.1-0.1c0.3-0.1,0.6-0.3,0.8-0.6c0.2-0.3,0.3-0.6,0.4-0.9
		c0.1-0.4,0-0.7-0.2-1.1l-0.9-2.2l-3.6,1.6L27.4,125.9z"/>
	<path d="M34,128.1l1.7,2.8c0.6,0.9,0.9,1.9,0.9,2.8c0,0.9-0.2,1.8-0.7,2.6c-0.5,0.8-1.2,1.5-2.1,2c-0.9,0.5-1.8,0.8-2.7,0.9
		c-0.9,0-1.8-0.2-2.6-0.7c-0.8-0.5-1.5-1.2-2.1-2.1l-1.7-2.8L34,128.1z M27.5,135.7c0.6,1.1,1.5,1.8,2.5,2c1,0.3,2.1,0.1,3.2-0.6
		c1.1-0.7,1.8-1.5,2.1-2.5s0-2.1-0.6-3.2l-1-1.7l-7.1,4.3L27.5,135.7z"/>
	<path d="M40.9,138.6l0.9,1.1l-5.9,9.9l-0.9-1.1l1.6-2.7l-2.9-3.6l-3,1l-0.9-1.1L40.9,138.6z M37.4,144.7l2.2-3.5l0.6-1.1l0,0
		l-1.2,0.4l-3.9,1.3L37.4,144.7z"/>
	<path d="M41.9,148.6l1.6-6.6l1,1.1l-1.3,5.1l0,0l5.1-1.2l1,1.1l-6.6,1.5l-3.5,3.5l-0.9-0.9L41.9,148.6z"/>
	<path d="M51.6,149.6l1.1,0.9l-3.6,10.9l-1.1-0.9l1-3l-3.6-2.9l-2.7,1.6l-1.1-0.9L51.6,149.6z M49.4,156.4l1.3-3.9l0.4-1.2l0,0
		l-1.1,0.6l-3.5,2.1L49.4,156.4z"/>
	<path d="M59.2,155.1l1.2,0.8l-2.1,11.3l-1.2-0.7l0.6-3.1l-4-2.4l-2.5,2l-1.2-0.7L59.2,155.1z M58,162.1l0.8-4l0.2-1.2l0,0l-1,0.8
		l-3.2,2.6L58,162.1z"/>
	<path d="M64.6,158.3l1.4,0.6l1.6,10l0.1,0l0.8-1.9l2.6-5.9l1.2,0.5l-4.3,9.9l-1.2-0.5l-1.6-10.5l-0.1,0l-0.8,1.9l-2.7,6.3l-1.2-0.5
		L64.6,158.3z"/>
	<path d="M76.1,173.6c-0.5-0.5-0.8-1.1-1-1.8c-0.2-0.7-0.2-1.4,0-2.2l1.5-6.6l1.2,0.3l-1.5,6.7c-0.2,0.8-0.1,1.6,0.2,2.2
		c0.3,0.6,0.9,1,1.7,1.2c0.8,0.2,1.5,0.1,2.1-0.4s1-1.1,1.2-1.9l1.5-6.7l1.2,0.3l-1.5,6.6c-0.2,0.8-0.5,1.5-1,2
		c-0.4,0.6-1,0.9-1.7,1.1c-0.7,0.2-1.4,0.2-2.2,0C77.2,174.4,76.6,174.1,76.1,173.6z"/>
	<path d="M85.6,165.1l1.8,0.1l2.8,9h0.1l4.1-8.5l1.8,0.1l-0.8,10.7l-1.3-0.1l0.5-6.8l0.2-2l-0.1,0l-4.1,8.6l-1-0.1l-2.9-9.1h-0.1
		l-0.1,2l-0.5,6.8l-1.3-0.1L85.6,165.1z"/>
	<path d="M101,165.5l1.4-0.1l4.9,10.4l-1.4,0.1l-1.3-2.9l-4.6,0.4l-0.8,3l-1.4,0.1L101,165.5z M104.1,171.8l-1.7-3.7l-0.5-1.1
		l-0.1,0l-0.3,1.2l-1.1,4L104.1,171.8z"/>
	<path d="M108.8,165.7l-3,0.6l-0.2-1.2l7.2-1.4l0.2,1.2l-2.9,0.6l1.8,9.4l-1.2,0.2L108.8,165.7z"/>
	<path d="M117,162.5l3.6-1.3c0.5-0.2,1-0.2,1.6-0.2c0.5,0.1,1,0.3,1.4,0.6s0.7,0.7,0.9,1.2c0.2,0.5,0.2,1,0.1,1.4
		c-0.1,0.5-0.3,0.9-0.7,1.2l0,0.1c0.6,0,1.1,0.1,1.6,0.4c0.5,0.3,0.8,0.7,1,1.3c0.2,0.5,0.2,1.1,0.1,1.6c-0.1,0.5-0.4,1-0.7,1.4
		c-0.4,0.4-0.8,0.7-1.4,0.9l-3.8,1.4L117,162.5z M122.2,165.5c0.3-0.1,0.6-0.3,0.8-0.6c0.2-0.3,0.3-0.5,0.4-0.8c0-0.3,0-0.6-0.1-0.8
		c-0.1-0.3-0.3-0.5-0.5-0.7s-0.5-0.3-0.8-0.4c-0.3-0.1-0.6,0-1,0.1l-2.5,0.9l1.2,3.2L122.2,165.5z M124.2,170
		c0.3-0.1,0.6-0.3,0.8-0.6s0.3-0.6,0.4-0.9c0-0.3,0-0.6-0.1-0.9c-0.1-0.3-0.3-0.5-0.5-0.7c-0.2-0.2-0.5-0.4-0.9-0.4s-0.7,0-1,0.1
		l-2.6,1l1.3,3.4L124.2,170z"/>
	<path d="M125.1,159.4l5.5-2.8l0.6,1.1l-4.4,2.3l1.6,3.2l4-2l0.5,1.1l-4,2l1.6,3.2l4.4-2.3l0.6,1.1l-5.5,2.8L125.1,159.4z"/>
	<path d="M131.9,155.7l3-2c0.5-0.3,1-0.5,1.6-0.6s1.1,0,1.6,0.3s1,0.6,1.3,1.1c0.3,0.4,0.4,0.9,0.5,1.3s0,1-0.2,1.4
		c-0.2,0.5-0.4,0.9-0.8,1.2v0.1l5,2l0,0l-1.2,0.8l-4.9-2l-1.4,0.9l2.4,3.6l-1,0.7L131.9,155.7z M137.7,158.1
		c0.3-0.2,0.6-0.5,0.7-0.8s0.3-0.7,0.3-1c0-0.4-0.1-0.7-0.3-1c-0.2-0.3-0.4-0.5-0.7-0.6c-0.3-0.2-0.6-0.2-1-0.2s-0.7,0.1-1,0.4
		l-2,1.3l2.2,3.3L137.7,158.1z"/>
	<path d="M138.8,151.1l1-0.8l3.7,4.3l0,0l0-7.4l1.2-1.1l0,0l0,6.1l7.2,1.8l0,0l-1.2,1l-6-1.5l0,2.6l2.1,2.4l-1,0.8L138.8,151.1z"/>
	<path d="M145.3,145.3l4.2-4.6l0.9,0.8l-3.4,3.6l2.6,2.4l3-3.3l0.9,0.8l-3,3.3l2.6,2.4l3.4-3.6l0.9,0.8l-4.2,4.6L145.3,145.3z"/>
	<path d="M150.5,139.4l0.8-1l7.7,5.7l2.8-3.8l1,0.7l-3.5,4.8L150.5,139.4z"/>
	<path d="M156.3,130.9l0.7-1.3l11.4,1.8l-0.7,1.2l-3.1-0.5l-2.3,4l2,2.4l-0.7,1.2L156.3,130.9z M163.3,131.9l-4.1-0.7L158,131l0,0.1
		l0.8,0.9l2.7,3.2L163.3,131.9z"/>
	<path d="M159.3,125.4l0.6-1.4l9.9-1.9l0-0.1l-1.9-0.7l-6-2.4l0.5-1.2l10,4l-0.5,1.2l-10.4,1.9l0,0.1l1.9,0.7l6.4,2.5l-0.5,1.2
		L159.3,125.4z"/>
	<path d="M172.9,118.2c-0.6,0.5-1.3,0.7-2.1,0.8l-0.2-1.3c1.2-0.1,2-0.6,2.2-1.6c0.1-0.6,0.1-1.1-0.2-1.5s-0.8-0.8-1.4-0.9l-7.3-1.9
		l0.3-1.2l7.2,1.9c0.7,0.2,1.3,0.5,1.8,0.9s0.7,0.9,0.9,1.4s0.1,1.1,0,1.7C173.8,117.2,173.4,117.8,172.9,118.2z"/>
	<path d="M175.1,108.6c-0.4,0.5-1,0.9-1.7,1.2c-0.7,0.2-1.4,0.3-2.2,0.2l-6.7-0.9l0.2-1.3l6.8,0.9c0.9,0.1,1.6,0,2.2-0.4
		c0.6-0.4,1-1,1.1-1.9c0.1-0.9-0.1-1.5-0.5-2.1c-0.5-0.5-1.2-0.9-2-1l-6.8-0.9l0.2-1.2l6.7,0.9c0.8,0.1,1.5,0.4,2.1,0.8
		c0.6,0.4,1,0.9,1.3,1.6c0.3,0.6,0.4,1.4,0.2,2.2C175.8,107.3,175.6,108,175.1,108.6z"/>
	<path d="M166.8,97.4l0,3l-1.2,0l0.1-7.3l1.2,0l-0.1,3l9.5,0.2l0,1.3L166.8,97.4z"/>
	<path d="M165.4,89.9l-0.1-1.4l10.3-5.1l0.1,1.4l-2.8,1.4l0.5,4.6l3,0.8l0.1,1.4L165.4,89.9z M171.7,86.7l-3.7,1.8l-1.1,0.5l0,0.1
		l1.2,0.3l4,1L171.7,86.7z"/>
	<path d="M164.7,83.6l-0.4-1.5l7-7.2l0-0.1l-2,0.5l-6.3,1.5l-0.3-1.2l10.4-2.5l0.3,1.3l-7.4,7.6l0,0.1l2-0.5l6.7-1.6l0.3,1.2
		L164.7,83.6z"/>
	<path d="M165,64.6c-0.2,0.4-0.4,0.8-0.9,1c-0.4,0.2-0.9,0.2-1.3,0.1c-0.4-0.2-0.8-0.5-1-0.9c-0.2-0.4-0.2-0.8-0.1-1.3
		c0.2-0.4,0.5-0.8,0.9-1c0.4-0.2,0.8-0.2,1.3-0.1c0.4,0.2,0.8,0.4,1,0.9C165.1,63.8,165.2,64.2,165,64.6z"/>
	<path d="M28.8,51.8l2.1-2.9c0.3-0.5,0.8-0.9,1.3-1.1c0.5-0.3,1.1-0.4,1.6-0.3c0.6,0,1.1,0.2,1.6,0.6c0.5,0.4,0.9,0.8,1.1,1.3
		c0.2,0.5,0.3,1.1,0.2,1.7s-0.3,1.1-0.6,1.6l-1.4,1.9l3.6,2.5l-0.7,1L28.8,51.8z M35.1,51.8c0.2-0.3,0.4-0.7,0.4-1
		c0-0.4,0-0.7-0.2-1c-0.1-0.3-0.4-0.6-0.6-0.8c-0.3-0.2-0.6-0.3-0.9-0.3c-0.3,0-0.7,0-1,0.2c-0.3,0.1-0.6,0.4-0.8,0.7l-1.4,1.9
		l3.2,2.3L35.1,51.8z"/>
	<path d="M34.4,44.3l2.4-2.7c0.4-0.4,0.9-0.8,1.4-0.9c0.5-0.2,1.1-0.2,1.7-0.1c0.6,0.1,1.1,0.4,1.5,0.8c0.4,0.3,0.6,0.7,0.8,1.2
		c0.2,0.5,0.2,0.9,0.2,1.4c-0.1,0.5-0.2,0.9-0.5,1.4l0,0.1l5.3,0.7l0,0l-1,1.1l-5.2-0.8l-1.1,1.3l3.2,2.9l-0.8,0.9L34.4,44.3z
		 M40.6,45.2c0.2-0.3,0.4-0.6,0.5-0.9c0.1-0.4,0.1-0.7,0-1.1s-0.3-0.7-0.6-0.9c-0.2-0.2-0.5-0.4-0.9-0.4s-0.7-0.1-1,0
		c-0.3,0.1-0.7,0.3-0.9,0.6l-1.6,1.8l2.9,2.7L40.6,45.2z"/>
	<path d="M49.2,43.7c-1,0.1-1.9,0-2.8-0.3c-0.9-0.4-1.7-0.9-2.4-1.7C43.4,40.8,43,40,42.8,39c-0.2-1-0.1-1.9,0.2-2.8
		c0.3-0.9,0.9-1.7,1.7-2.4c0.8-0.7,1.7-1.1,2.6-1.2s1.9,0,2.8,0.3c0.9,0.4,1.7,0.9,2.4,1.7c0.7,0.8,1.1,1.7,1.2,2.6
		c0.2,1,0.1,1.9-0.2,2.8c-0.3,0.9-0.9,1.7-1.7,2.4C51.1,43.1,50.2,43.5,49.2,43.7z M52.4,39.7c0.3-0.7,0.3-1.4,0.2-2.2
		c-0.1-0.8-0.5-1.5-1-2.1s-1.2-1.1-1.9-1.4c-0.7-0.3-1.4-0.4-2.2-0.2c-0.7,0.1-1.4,0.4-2,0.9c-0.6,0.5-1,1.1-1.3,1.8
		s-0.3,1.4-0.2,2.2c0.1,0.8,0.5,1.5,1,2.1c0.5,0.6,1.2,1.1,1.9,1.4c0.7,0.3,1.4,0.4,2.2,0.2s1.4-0.4,2-0.9
		C51.7,41,52.1,40.4,52.4,39.7z"/>
	<path d="M58.4,36.7c-1,0-1.9-0.2-2.8-0.7s-1.6-1.2-2.1-2.1c-0.5-0.9-0.8-1.8-0.8-2.8c0-1,0.2-1.9,0.7-2.8c0.5-0.9,1.2-1.5,2-2
		c0.7-0.4,1.4-0.7,2.1-0.8s1.4-0.1,2.1,0.2l-0.3,1.3c-0.5-0.2-1-0.3-1.6-0.2c-0.6,0.1-1.1,0.3-1.6,0.6c-0.7,0.4-1.2,0.9-1.6,1.5
		c-0.4,0.6-0.6,1.4-0.6,2.1s0.2,1.5,0.6,2.3c0.4,0.8,1,1.3,1.7,1.7s1.4,0.6,2.1,0.5s1.5-0.2,2.1-0.6c0.6-0.4,1.1-0.8,1.4-1.2
		c0.3-0.4,0.5-0.9,0.6-1.4c0.1-0.4,0.1-0.8,0-1.2c-0.1-0.4-0.2-0.8-0.4-1.3l-3.4,2l-0.6-1l4.5-2.6c0.2,0.2,0.3,0.4,0.5,0.6
		c0.3,0.6,0.6,1.2,0.7,1.8c0.1,0.6,0.1,1.3,0,1.9c-0.3,1.4-1.2,2.5-2.6,3.4C60.3,36.4,59.4,36.7,58.4,36.7z"/>
	<path d="M62.8,22.7l3.4-1.4c0.5-0.2,1.1-0.3,1.7-0.2s1.1,0.3,1.6,0.6s0.8,0.8,1,1.3c0.2,0.5,0.3,0.9,0.2,1.4c0,0.5-0.2,0.9-0.5,1.4
		c-0.3,0.4-0.6,0.8-1,1l0,0.1l4.5,2.9l0,0.1l-1.4,0.6l-4.4-3l-1.6,0.6l1.7,4.1l-1.2,0.5L62.8,22.7z M68,26.2
		c0.3-0.1,0.6-0.3,0.9-0.6c0.2-0.3,0.4-0.6,0.5-1c0.1-0.4,0-0.7-0.1-1.1c-0.1-0.3-0.3-0.6-0.6-0.8c-0.3-0.2-0.6-0.4-0.9-0.4
		c-0.4-0.1-0.7,0-1.1,0.1l-2.2,0.9l1.5,3.7L68,26.2z"/>
	<path d="M74.7,18.5l1.4-0.4l6.7,9.3l-1.4,0.4l-1.8-2.6l-4.5,1.2l-0.3,3.1l-1.4,0.4L74.7,18.5z M78.9,24.2l-2.4-3.4l-0.7-1l-0.1,0
		L75.7,21l-0.4,4.1L78.9,24.2z"/>
	<path d="M82.4,16.6l1.8-0.2l4.3,8.4l0.1,0l2.5-9.1l1.8-0.2L94,26.2l-1.3,0.1l-0.7-6.8l-0.1-2l-0.1,0l-2.6,9.2l-1,0.1l-4.4-8.5
		l-0.1,0l0.3,2l0.7,6.8l-1.3,0.1L82.4,16.6z"/>
	<path d="M100.1,15.7L104,16c0.5,0,1,0.2,1.5,0.5c0.5,0.3,0.8,0.7,1,1.1c0.2,0.5,0.3,1,0.3,1.5c0,0.5-0.2,1-0.5,1.3
		c-0.3,0.4-0.7,0.6-1.1,0.8l0,0.1c0.5,0.2,0.9,0.6,1.2,1c0.3,0.5,0.4,1,0.4,1.6c-0.1,0.6-0.2,1.1-0.6,1.5c-0.3,0.4-0.8,0.8-1.3,1
		c-0.5,0.2-1.1,0.3-1.6,0.2l-4-0.4L100.1,15.7z M103.4,25.5c0.4,0,0.7,0,1-0.2c0.3-0.2,0.5-0.4,0.7-0.6s0.3-0.6,0.3-0.9
		c0-0.3,0-0.6-0.2-0.9c-0.1-0.3-0.3-0.5-0.6-0.7c-0.3-0.2-0.6-0.3-1-0.4l-2.8-0.3l-0.3,3.7L103.4,25.5z M103.5,20.6
		c0.4,0,0.7,0,1-0.2c0.3-0.1,0.5-0.3,0.7-0.6c0.2-0.2,0.3-0.5,0.3-0.8c0-0.3,0-0.5-0.1-0.8c-0.1-0.3-0.3-0.5-0.6-0.7
		s-0.5-0.3-0.9-0.3l-2.6-0.2l-0.3,3.4L103.5,20.6z"/>
	<path d="M109.8,16.8l6.1,1.3l-0.3,1.2l-4.8-1l-0.7,3.5l4.4,0.9l-0.3,1.2l-4.4-0.9l-0.7,3.5l4.8,1l-0.3,1.2l-6.1-1.3L109.8,16.8z"/>
	<path d="M121.6,19.8l1.4,0.5l0.4,11.5l-1.3-0.5l-0.1-3.1l-4.4-1.5l-2,2.4l-1.3-0.5L121.6,19.8z M121.9,26.8l-0.1-4.1l0-1.2l-0.1,0
		l-0.8,1l-2.6,3.2L121.9,26.8z"/>
	<path d="M124.9,32c-0.4-0.8-0.5-1.6-0.3-2.6l1.3,0.1c-0.1,0.7-0.1,1.3,0.2,1.8c0.2,0.6,0.6,1,1.2,1.3s1.1,0.4,1.6,0.2
		s0.9-0.4,1.2-0.9c0.2-0.4,0.2-0.9,0.1-1.4c-0.2-0.5-0.6-1-1.2-1.6l-0.5-0.5c-0.6-0.6-1-1.2-1.2-1.8c-0.2-0.6-0.2-1.3,0.2-2
		c0.2-0.5,0.6-0.8,1-1.1c0.4-0.3,0.9-0.4,1.5-0.4c0.6,0,1.1,0.1,1.7,0.4c0.6,0.3,1,0.6,1.3,1c0.3,0.4,0.5,0.8,0.6,1.2
		c0.1,0.4,0.1,0.8,0.1,1.1l-1.3-0.1c0.1-0.4,0-0.8-0.2-1.2c-0.2-0.4-0.5-0.8-1.1-1c-0.5-0.2-1-0.3-1.5-0.2s-0.8,0.4-1,0.8
		c-0.2,0.4-0.2,0.8,0,1.1c0.2,0.4,0.5,0.8,1,1.3l0.5,0.5c0.7,0.7,1.1,1.4,1.4,2.1c0.2,0.7,0.2,1.4-0.2,2.1c-0.3,0.6-0.7,1.1-1.2,1.3
		c-0.5,0.3-1.1,0.4-1.7,0.3c-0.6,0-1.1-0.2-1.6-0.4C125.9,33.4,125.3,32.8,124.9,32z"/>
	<path d="M136.7,26.7l1.1,0.6l-5.5,9.2l-1.1-0.6L136.7,26.7z"/>
	<path d="M134.9,37.6c-0.3-0.8-0.2-1.7,0.1-2.6l1.3,0.3c-0.2,0.6-0.3,1.2-0.1,1.8s0.5,1.1,1,1.4c0.5,0.4,1,0.5,1.6,0.5
		s1-0.3,1.3-0.7c0.3-0.4,0.4-0.8,0.3-1.3c-0.1-0.5-0.4-1.1-0.9-1.8l-0.4-0.6c-0.5-0.7-0.8-1.3-0.9-1.9c-0.1-0.6,0-1.3,0.5-1.9
		c0.3-0.4,0.7-0.7,1.2-0.9s1-0.2,1.6-0.2s1.1,0.3,1.6,0.7c0.5,0.4,0.9,0.8,1.1,1.2s0.4,0.9,0.4,1.3c0,0.4,0,0.8-0.1,1.1l-1.3-0.3
		c0.1-0.4,0.1-0.8,0-1.2c-0.1-0.5-0.4-0.8-0.9-1.2c-0.4-0.3-0.9-0.5-1.4-0.4c-0.5,0-0.9,0.2-1.2,0.6c-0.2,0.3-0.3,0.7-0.2,1.1
		c0.1,0.4,0.4,0.9,0.8,1.5l0.4,0.6c0.6,0.8,0.9,1.5,1,2.2s-0.1,1.4-0.6,2.1c-0.4,0.6-0.9,0.9-1.4,1.1s-1.1,0.2-1.7,0.1
		s-1.1-0.4-1.5-0.7C135.7,39,135.2,38.4,134.9,37.6z"/>
	<path d="M147.1,33.6l1,1l-4.1,7l-0.4,0.7l0,0l0.7-0.4l7.2-4l0.9,0.9l-3.8,7.3l-0.4,0.7l0,0l7.5-4.7l1,1l-9.6,5.7l-0.9-0.9l3.8-7.2
		l0.4-0.8l0,0l-0.8,0.4l-7.1,3.9l-0.9-0.9L147.1,33.6z"/>
	<path d="M159.7,46.9l0.9,1.1l-6.1,9.7l-0.8-1.1l1.7-2.6l-2.8-3.7l-3,0.9l-0.8-1.1L159.7,46.9z M156,53l2.2-3.5l0.7-1l0,0l-1.2,0.4
		l-3.9,1.2L156,53z"/>
</g>
<g>
	<path d="M127.5,86.5c-3.9-1.2-8.2-1.8-12.2-1.8c-6.8,0-14.2,1.4-19.3,5.2c-5.1-3.8-12.4-5.2-19.2-5.2
		S62.6,86.2,57.5,90v51.3c0,0.9,0.9,1.8,1.7,1.8c0.4,0,0.5-0.2,0.9-0.2c4.7-2.3,11.5-3.8,16.6-3.8c6.8,0,14.2,1.4,19.2,5.2
		c4.7-3,13.3-5.2,19.3-5.2c5.8,0,11.7,1,16.6,3.7c0.4,0.2,0.5,0.2,0.9,0.2c0.9,0,1.8-0.9,1.8-1.8V90
		C132.4,88.4,130.1,87.4,127.5,86.5z M81.4,116.2h-2.2v-4.5h2.2c0.6,0,1.1-0.5,1.1-1.1s-0.5-1.1-1.1-1.1h-2.2
		c-0.6,0-1.1,0.5-1.1,1.1V123h-4.5v-12.4c0-3.1,2.5-5.6,5.6-5.6h2.2c3.1,0,5.6,2.5,5.6,5.6S84.5,116.2,81.4,116.2z M102.8,117.4
		c0,3.1-2.5,5.6-5.6,5.6h-2.2c-3.1,0-5.6-2.5-5.6-5.6V105h4.5v12.4c0,0.6,0.5,1.1,1.1,1.1h2.2c0.6,0,1.1-0.5,1.1-1.1V105h4.5V117.4z
		 M118.5,117.4c0,3.1-2.5,5.6-5.6,5.6h-2.2v-4.5h2.2c0.6,0,1.1-0.5,1.1-1.1s-0.5-1.1-1.1-1.1h-2.2v-4.5h2.2c0.6,0,1.1-0.5,1.1-1.1
		s-0.5-1.1-1.1-1.1h-2.2c-0.6,0-1.1,0.5-1.1,1.1V123H105v-12.4c0-3.1,2.5-5.6,5.6-5.6h2.2c3.1,0,5.6,2.5,5.6,5.6
		c0,1.3-0.4,2.4-1.2,3.4C118.1,114.9,118.5,116.1,118.5,117.4z"/>
	<path d="M78.5,63v7c0,1.8,1,3.5,2.6,4.4l12.5,6.8c1.5,0.8,3.3,0.8,4.8,0l12.5-6.8c1.6-0.9,2.6-2.6,2.6-4.4v-7
		l-15.1,8.2c-1.5,0.8-3.3,0.8-4.8,0L78.5,63z M93.6,38.8L72.5,50.3c-1.7,1-1.7,3.5,0,4.4l21.1,11.5c1.5,0.8,3.3,0.8,4.8,0l20.1-11
		V70c0,1.4,1.1,2.5,2.5,2.5s2.5-1.1,2.5-2.5V54c0-0.9-0.5-1.7-1.3-2.2l-23.8-13C96.9,38,95.1,38,93.6,38.8z"/>
</g>
</svg>
