<?xml version="1.0" encoding="utf-8"?>
<!-- Generator: Adobe Illustrator 26.3.1, SVG Export Plug-In . SVG Version: 6.00 Build 0)  -->
<svg version="1.1" id="Layer_1" xmlns="http://www.w3.org/2000/svg" xmlns:xlink="http://www.w3.org/1999/xlink" x="0px" y="0px"
	 viewBox="0 0 144 144" style="enable-background:new 0 0 144 144;" xml:space="preserve">
<style type="text/css">
	.st0{fill:#4285F4;}
</style>
<polygon class="st0" points="22.5,25.9 9,15.8 9,33.8 22.5,43.9 "/>
<polygon class="st0" points="78,58.5 90,67.5 121.5,43.9 121.5,52.9 121.5,79.9 121.5,91.1 135,101.2 135,90 135,42.8 135,33.8 
	144,27 144,9 "/>
<polygon class="st0" points="54,76.5 22.5,100.1 22.5,91.1 22.5,64.1 22.5,52.9 9,42.8 9,54 9,101.2 9,110.2 0,117 0,135 66,85.5 
	"/>
<polygon class="st0" points="96,81 31.5,32.6 31.5,36 31.5,50.6 31.5,59.6 31.5,60.8 31.5,84.4 48,72 48,63 112.5,111.4 112.5,96.8 
	112.5,93.4 112.5,84.4 112.5,72 112.5,59.6 96,72 "/>
<polygon class="st0" points="121.5,100.1 121.5,118.1 135,128.2 135,110.2 "/>
<polygon points="72,36 24,0 0,0 72,54 144,0 120,0 "/>
<polygon points="72,108 120,144 144,144 72,90 0,144 24,144 "/>
</svg>
